<svg width="685" height="182" viewBox="0 0 685 182" fill="none" xmlns="http://www.w3.org/2000/svg">
<path d="M149.552 0.326172V113.712C149.552 149.332 165.353 164.425 186.522 164.425C210.119 164.425 225.212 148.85 225.212 113.712V0.326172H245.98V112.298C245.98 161.13 220.262 181.175 185.815 181.175C153.265 181.175 128.736 162.545 128.736 113.23V0.326172H149.552Z" fill="#1D1D1B"/>
<path d="M19.1602 0.326172V62.4039H90.9144V0.326172H110.203V148.689H90.9144V79.1208H19.1602V148.689H0V0.326172H19.1602Z" fill="#1D1D1B"/>
<path d="M355.187 148.689L336.268 115.882C328.568 103.344 323.73 95.1948 319.101 86.6113H318.586C314.407 95.1948 310.212 103.119 302.512 116.107L284.831 148.689H262.81L308.17 73.6235L264.578 0.326172H286.808L306.402 35.0942C311.899 44.7386 316.047 52.2773 320.049 60.2018H320.708C324.887 51.3932 328.633 44.5618 334.13 35.0942L354.383 0.326172H376.404L331.269 72.5144L377.497 148.689H355.187Z" fill="#1D1D1B"/>
<path d="M187.423 148.69C157.043 148.143 157.043 102.991 187.423 102.461C217.802 103.007 217.786 148.143 187.423 148.69ZM187.423 106.897C162.829 107.331 162.829 143.868 187.423 144.318C212.016 143.835 212 107.299 187.423 106.865V106.897Z" fill="#1D1D1B"/>
<path d="M193.209 144.768C174.081 144.431 174.081 115.996 193.209 115.658C212.321 115.996 212.305 144.431 193.209 144.768ZM193.209 119.05C178.517 119.323 178.533 141.135 193.209 141.409C207.868 141.119 207.852 119.307 193.209 119.034V119.05Z" fill="#1D1D1B"/>
<path d="M196.89 138.322C184.24 138.097 184.24 119.29 196.89 119.033C209.54 119.29 209.54 138.161 196.89 138.322ZM196.89 121.782C187.792 121.943 187.792 135.445 196.89 135.622C205.972 135.445 205.972 121.943 196.89 121.782Z" fill="#1D1D1B"/>
<path d="M195.347 121.412C188.757 121.412 188.757 131.458 195.347 131.491C201.937 131.523 201.921 121.444 195.347 121.412ZM195.958 129.128C191.923 129.128 191.923 122.827 195.958 122.875C199.992 122.923 200.009 129.176 195.958 129.128Z" fill="#1D1D1B"/>
<path d="M446.098 159.8C432.898 159.8 419.298 149.4 414.898 135.8C413.298 131 412.498 125.8 412.498 120.6C412.498 114.2 413.698 107.4 416.898 101.8C418.898 97.8004 421.298 94.2004 424.898 93.0004C428.098 92.2004 432.498 94.2004 435.698 97.8004C438.898 101 438.098 103.4 436.098 104.6C430.498 108.2 426.898 119.8 426.898 130.2C426.898 137.4 428.498 143.8 432.898 146.6C449.298 157.8 476.098 115.4 479.298 101C480.498 95.4004 494.498 102.6 493.698 108.6C493.298 111.4 492.898 117.8 492.898 125C494.498 134.6 497.298 144.2 508.498 145.4C536.098 144.2 560.098 123 573.298 109.8C576.898 105 576.498 117 571.698 124.6C563.698 137 543.298 158.6 515.698 157C500.098 157 487.698 147.4 482.098 134.2C474.098 145.8 462.498 159.8 446.098 159.8Z" fill="#7D7F86"/>
<path d="M571.688 151.4C565.688 145 562.888 131.4 562.888 118.2C562.888 105.8 565.288 93.4004 569.688 86.6004C570.088 84.6004 574.088 84.2004 578.888 85.4004C583.288 87.0004 585.688 90.2004 585.288 92.2004C582.088 95.4004 574.088 140.6 580.088 145.8C583.288 148.2 587.288 149.4 591.688 149.4C616.488 149.4 658.888 117.4 670.888 105.4C672.488 103.8 676.488 106.2 671.688 115C664.088 129 627.688 160.6 600.088 161.8C590.088 162.2 579.288 159.8 571.688 151.4ZM580.088 58.6004C575.288 57.0004 572.888 53.4004 574.888 51.8004C575.688 50.6004 578.488 42.6004 579.288 40.6004L580.088 34.6004C580.088 32.2004 584.488 31.4004 588.488 33.0004C593.688 34.2004 596.888 37.4004 596.088 39.4004C596.088 41.0004 596.088 43.8004 594.888 46.2004C594.088 48.2004 590.888 57.0004 589.688 59.0004C588.488 60.6004 583.688 60.6004 580.088 58.6004Z" fill="#7D7F86"/>
</svg>
