<svg width="82" height="62" viewBox="0 0 82 62" fill="none" xmlns="http://www.w3.org/2000/svg">
<g clip-path="url(#clip0_2417_1048)">
<path d="M46.6001 18.9992C41.1001 29.4992 32.3001 37.7992 26.8001 48.3992C26.1001 49.7992 29.0001 49.5992 29.5001 48.5992C35.0001 37.9992 43.9001 29.6992 49.4001 19.1992C50.1001 17.7992 47.2001 17.9992 46.6001 18.9992Z" fill="#1D1D1B"/>
<path d="M24.4999 2.60053C35.3999 1.20053 41.8999 11.3005 46.5999 19.4005C47.1999 20.4005 49.9999 19.4005 49.2999 18.2005C43.9999 9.10052 36.7999 -0.799474 24.8999 0.700526C23.2999 0.900526 22.4999 2.90053 24.4999 2.60053Z" fill="#1D1D1B"/>
<path d="M50.2001 19.4003C53.0001 14.8003 64.0001 17.0003 67.5001 18.7003C71.0001 20.4003 74.3001 22.6003 77.2001 25.1003C77.9001 25.7003 80.5001 24.6003 79.9001 24.0003C74.3001 19.2003 67.9001 15.3003 60.3001 15.4003C55.8001 15.4003 49.9001 15.5003 47.3001 19.8003C47.0001 20.4003 49.7001 20.2003 50.2001 19.4003Z" fill="#1D1D1B"/>
<path d="M28.5 51.2C33.3 46.9 40.7 47 46.6 49.2C51.3 50.9 52.2 55 54 59.3C54.5 60.5 57.4001 59.6 56.9001 58.5C55.7001 55.6 54.7001 51.3 52.2001 49.1C49.9001 47.1 45.9 46.7 43.1 46.2C36.7 45.1 31 46 26.1 50.4C24.8 51.6 27.7 52 28.5 51.2Z" fill="#1D1D1B"/>
<path d="M4.19998 33.7003C10.8 32.4003 16.4 35.3003 20.6 40.1003C21.9 41.6003 23.7 43.4003 24.5 45.2003C25.3 47.1003 25.3 49.7003 25.5 51.7003C25.6 52.6003 28.5 52.0003 28.4 50.9003C28 48.0003 28 45.2003 26.2 42.7003C24.2 39.8003 21.6 36.8003 18.6 34.8003C14.1 31.8003 8.89998 31.3003 3.69998 32.4003C1.99998 32.7003 2.39998 34.0003 4.19998 33.7003Z" fill="#1D1D1B"/>
<path d="M78.3 24.7008C75.1 30.6008 71.9 36.5008 68.5 42.3008C67 44.8008 65.6 47.3008 64 49.8008C62.3 52.4008 58.9 59.2008 55.8 59.8008C56.4 59.9008 56.9 60.1008 57.5 60.2008C57.2 59.2008 57.1 58.2008 57.1 57.2008C57.1 56.2008 54.1 56.8008 54.2 58.0008C54.2 59.0008 54.3 60.0008 54.6 61.0008C54.7 61.6008 55.9 61.5008 56.3 61.4008C62 60.2008 65.5 52.1008 68.2 47.7008C72.8 40.2008 76.9 32.5008 81.1 24.8008C81.7 23.6008 78.8 23.8008 78.3 24.7008Z" fill="#1D1D1B"/>
<path d="M22.9 0.899165C14.6 10.8992 6.30003 20.8992 0.900029 32.7992C0.200029 34.2992 3.10003 34.3992 3.70003 33.1992C9.00003 21.4992 17.1 11.5992 25.4 1.89917C26.5 0.399165 23.8 -0.100835 22.9 0.899165Z" fill="#1D1D1B"/>
<path d="M51.0999 22.7991C51.2999 22.5991 56.5999 26.0991 56.1999 25.8991C56.9999 26.2991 57.1 26.1991 58 26.1991C59 26.1991 58.1999 25.6991 59.5999 26.0991C59.9999 26.0991 60.3 26.1991 60.4 26.3991C60.5 26.4991 60.4999 26.5991 60.5999 26.6991C60.8999 26.7991 61.2999 27.0991 61.5999 27.2991C63.2999 28.0991 65.6 28.3991 67.3 29.2991C67.5 29.3991 68.2 29.0991 67.9 28.9991C66.8 28.3991 65.6999 27.7991 64.5999 27.2991C63.8999 26.9991 63.2999 27.1991 62.6999 26.9991C63.6999 27.2991 60.4999 25.2991 60.1999 25.2991C59.9999 25.2991 59.2999 25.3991 59.0999 25.3991C58.8999 25.4991 58.6 25.5991 58.4 25.7991C57.4 25.8991 56.7 25.5991 56.4 24.8991C56.2 24.7991 55.8999 24.1991 55.6999 24.0991C55.4999 23.8991 53.9999 23.7991 54.5999 23.9991C53.7999 23.6991 53.2 23.0991 52.5 22.7991C51.6 22.4991 51.2 22.3991 50.5 23.0991C50.2 22.9991 50.8999 22.8991 51.0999 22.7991Z" fill="#1D1D1B"/>
<path d="M46.8999 28.5995C49.9999 26.1995 49.2999 29.9995 50.6999 30.6995C50.9999 30.7995 51.2999 30.7995 51.4999 30.7995C53.0999 31.2995 51.8999 30.5995 55.1999 31.7995C55.3999 31.8995 56.2999 32.1995 56.5999 32.2995C58.5999 33.2995 59.6999 34.1995 61.9999 34.8995C62.2999 34.9995 62.8999 34.5995 62.3999 34.3995C61.6999 34.1995 60.7999 33.9995 60.1999 33.6995C59.4999 33.2995 58.9999 32.4995 58.2999 32.0995C57.4999 31.6995 57.0999 31.7995 56.2999 31.2995C55.0999 30.4995 55.1999 30.1995 53.6999 29.8995C53.4999 29.8995 53.1999 30.0995 52.8999 29.9995C52.0999 29.6995 51.2999 29.3995 50.4999 29.1995C50.4999 28.8995 50.3999 28.6995 50.3999 28.3995C49.7999 27.6995 50.2999 27.4995 49.2999 27.1995C48.2999 26.7995 47.1999 27.5995 46.4999 28.1995C46.0999 28.5995 46.5999 28.8995 46.8999 28.5995Z" fill="#1D1D1B"/>
<path d="M41.3999 37.3C42.9999 36.6 44.1999 35.8 45.9999 37C46.1999 37.1 46.0999 37.5 46.2999 37.6C47.1999 38.1 47.2999 38.2 48.3999 38.4C51.2999 39 52.2999 39.6 54.0999 41.6C55.1999 42.8 56.0999 44 57.4999 44.8C57.6999 44.9 58.3999 44.6 58.0999 44.4C55.5999 43 54.5999 40.2 52.3999 38.6C51.1999 37.7 49.6999 37.8 48.3999 37.3C47.3999 37.4 46.7999 37 46.5999 36.1C46.4999 35.9 46.3999 35.7 46.2999 35.6C46.0999 35.5 45.8999 35.4 45.6999 35.3C44.5999 34.9 42.1999 36.5 41.2999 36.9C40.6999 37.2 41.0999 37.5 41.3999 37.3Z" fill="#1D1D1B"/>
<path d="M23.6001 7.89947C25.9001 7.59947 27.5001 7.99947 28.5001 10.1995C28.7001 10.5995 28.8001 11.0995 29.1001 11.4995C29.7001 12.4995 30.3001 12.5995 31.2001 13.1995C34.0001 14.9995 31.9001 14.8995 33.1001 16.4995C33.2001 16.6995 33.4001 16.6995 33.6001 16.7995C35.1001 17.7995 36.2001 17.9995 37.0001 19.7995C37.1001 20.0995 37.8001 19.8995 37.7001 19.5995C36.9001 17.8995 35.8001 17.5995 34.4001 16.4995C32.8001 15.1995 34.3001 14.4995 33.4001 13.2995C33.2001 12.9995 32.8001 12.9995 32.5001 12.7995C32.7001 12.8995 29.7001 11.3995 31.2001 12.1995C30.1001 11.5995 29.9001 11.0995 29.3001 9.89947C28.9001 9.09947 28.7001 8.39947 28.0001 7.79947C26.8001 6.89947 25.1001 7.09947 23.7001 7.29947C23.3001 7.49947 23.1001 7.89947 23.6001 7.89947Z" fill="#1D1D1B"/>
<path d="M21.0999 13.8991C23.3999 12.9991 22.3999 16.8991 22.8999 17.5991C23.5999 18.5991 25.6999 18.5991 26.5999 19.1991C28.1999 19.9991 29.3999 21.0991 30.5999 22.3991C31.8999 23.7991 33.7999 24.3991 34.9999 25.7991C35.0999 25.9991 35.7999 25.6991 35.6999 25.4991C35.0999 24.7991 34.5999 24.4991 33.7999 24.0991C32.3999 23.2991 31.5999 22.2991 30.3999 21.1991C28.7999 19.6991 26.8999 18.7991 24.9999 17.8991C23.5999 17.1991 23.4999 16.9991 23.3999 15.6991C23.3999 15.0991 23.2999 14.3991 22.8999 13.9991C22.1999 13.3991 21.4999 13.4991 20.7999 13.7991C20.2999 13.8991 20.7999 13.9991 21.0999 13.8991Z" fill="#1D1D1B"/>
<path d="M14.1999 24.0992C15.8999 22.5992 15.9999 22.7992 17.0999 24.5992C17.1999 24.7992 17.6999 25.8992 17.9999 26.1992C18.5999 26.6992 18.7999 26.6992 19.4999 26.8992C21.3999 27.5992 23.2999 26.4992 24.4999 28.7992C24.6999 29.1992 24.6999 29.7992 24.9999 30.1992C25.8999 31.4992 27.9999 31.6992 29.3999 32.1992C29.5999 32.2992 30.1999 31.9992 29.9999 31.8992C29.0999 31.5992 27.6999 31.3992 26.8999 30.8992C25.8999 30.2992 25.5999 29.1992 24.9999 28.2992C24.2999 27.3992 23.5999 26.6992 22.4999 26.4992C21.7999 26.3992 21.0999 26.6992 20.4999 26.5992C17.7999 26.1992 17.9999 23.5992 16.1999 22.2992C16.0999 22.1992 15.7999 22.2992 15.5999 22.3992C14.7999 22.7992 14.1999 23.4992 13.5999 24.0992C13.2999 24.2992 14.0999 24.2992 14.1999 24.0992Z" fill="#1D1D1B"/>
</g>
<defs>
<clipPath id="clip0_2417_1048">
<rect width="82" height="62" fill="white"/>
</clipPath>
</defs>
</svg>
