<svg width="150" height="150" viewBox="0 0 150 150" fill="none" xmlns="http://www.w3.org/2000/svg">
<g clip-path="url(#clip0_1222_2912)">
<path d="M75.0099 150C-25.0033 148.227 -25.0033 1.72114 75.0099 0C175.023 1.7733 174.97 148.227 75.0099 150ZM75.0099 14.395C-5.95317 15.8032 -5.95317 134.353 75.0099 135.814C155.973 134.249 155.92 15.6989 75.0099 14.2907V14.395Z" fill="#1D1D1B"/>
<path d="M93.7811 137.086C30.9037 135.992 30.9037 43.8096 93.7811 42.7153C156.605 43.8096 156.553 135.992 93.7811 137.086ZM93.7811 53.7105C45.487 54.5964 45.5398 125.309 93.7811 126.195C141.969 125.257 141.916 54.5443 93.7811 53.6584V53.7105Z" fill="#1D1D1B"/>
<path d="M106.419 116.225C64.527 115.495 64.527 54.477 106.419 53.6426C148.311 54.477 148.311 115.704 106.419 116.225ZM106.419 62.5606C76.2908 63.0821 76.2908 106.89 106.419 107.464C136.494 106.89 136.494 63.0821 106.419 62.5606Z" fill="#1D1D1B"/>
<path d="M101.36 61.5894C79.7251 61.5894 79.7251 94.2661 101.36 94.3706C122.995 94.4752 122.942 61.694 101.36 61.5894ZM103.365 86.6851C90.1204 86.6851 90.1204 66.1903 103.365 66.3471C116.61 66.504 116.663 86.8419 103.365 86.6851Z" fill="#1D1D1B"/>
</g>
<defs>
<clipPath id="clip0_1222_2912">
<rect width="150" height="150" fill="white"/>
</clipPath>
</defs>
</svg>
